<svg width="253.653320" height="48.000000" viewBox="0 0 253.653 48" fill="none" xmlns="http://www.w3.org/2000/svg" xmlns:xlink="http://www.w3.org/1999/xlink">
	<desc>
			Created with Pixso.
	</desc>
	<defs>
		<clipPath id="clip122_112">
			<rect id="residential 1" rx="0.000000" width="47.000000" height="47.000000" transform="translate(0.500000 0.500000)" fill="white" fill-opacity="0"/>
		</clipPath>
		<clipPath id="clip122_111">
			<rect id="logo" rx="0.000000" width="252.653259" height="47.000000" transform="translate(0.500000 0.500000)" fill="white" fill-opacity="0"/>
		</clipPath>
	</defs>
	<g clip-path="url(#clip122_111)">
		<g clip-path="url(#clip122_112)">
			<path id="Vector" d="M32.33 1.03L21.63 5.6L21.63 43.49L24.89 43.49L24.89 35.53L24.14 35.6C23.83 35.63 23.55 35.4 23.52 35.09C23.5 34.79 23.72 34.51 24.03 34.48L29.82 33.93C30.13 33.9 30.41 34.13 30.44 34.44C30.46 34.75 30.24 35.02 29.93 35.05L29.07 35.13L29.07 43.49L43.02 43.49L43.02 5.6L32.33 1.03ZM25.83 30.42L23.81 30.62L23.81 26.71L25.83 26.4L25.83 30.42ZM25.83 24.08L23.81 24.46L23.81 20.54L25.83 20.04L25.83 24.08ZM25.83 17.73L23.81 18.3L23.81 14.38L25.83 13.7L25.83 17.73ZM25.83 11.38L23.81 12.13L23.81 8.47L25.83 7.6L25.83 11.38ZM30.15 30.01L27.88 30.23L27.88 26.08L30.15 25.73L30.15 30.01ZM30.15 23.26L27.88 23.69L27.88 19.54L30.15 18.98L30.15 23.26L30.15 23.26ZM30.15 16.51L27.88 17.15L27.88 13L30.15 12.23L30.15 16.51ZM30.15 9.77L27.88 10.61L27.87 6.73L30.15 5.75L30.15 9.77L30.15 9.77ZM35.56 36.84C35.56 37.15 35.31 37.4 35 37.4C34.69 37.4 34.44 37.15 34.44 36.84L34.44 5.94C34.44 5.63 34.69 5.38 35 5.38C35.31 5.38 35.56 5.63 35.56 5.94L35.56 36.84L35.56 36.84ZM38.24 36.84C38.24 37.15 37.99 37.4 37.67 37.4C37.36 37.4 37.11 37.15 37.11 36.84L37.11 7.08C37.11 6.77 37.36 6.52 37.67 6.52C37.99 6.52 38.24 6.77 38.24 7.08L38.24 36.84L38.24 36.84ZM40.91 36.84C40.91 37.15 40.66 37.4 40.35 37.4C40.04 37.4 39.79 37.15 39.79 36.84L39.79 8.22C39.79 7.91 40.04 7.66 40.35 7.66C40.66 7.66 40.91 7.91 40.91 8.22L40.91 36.84L40.91 36.84ZM16.1 12.07L4.97 16.83L4.97 43.49L8.45 43.49L8.45 37.31L7.69 37.38C7.38 37.41 7.11 37.18 7.08 36.88C7.05 36.57 7.28 36.29 7.59 36.26L13.38 35.71C13.69 35.68 13.96 35.91 13.99 36.22C14.02 36.53 13.8 36.8 13.49 36.83L12.63 36.91L12.63 43.49L20.51 43.49L20.51 13.95L16.1 12.07ZM8.99 31.56L7.35 31.78L7.35 28.61L8.99 28.28L8.99 31.56ZM8.99 26.39L7.35 26.8L7.35 23.63L8.99 23.11L8.99 26.39ZM8.99 21.23L7.35 21.81L7.35 18.85L8.99 18.16L8.99 21.23ZM12.57 31.06L10.68 31.32L10.68 27.93L12.57 27.54L12.57 31.06ZM12.57 25.51L10.68 25.98L10.68 22.58L12.57 21.98L12.57 25.51ZM12.57 19.96L10.68 20.63L10.68 17.45L12.57 16.65L12.57 19.96ZM1.08 44.62L46.91 44.62L46.91 46.96L1.08 46.96L1.08 44.62Z" fill="#FFEA2E" fill-opacity="1.000000" fill-rule="evenodd"/>
		</g>
		<path id="Doskonałe Opcje Hotelowe" d="M73.35 3.04C78.54 3.04 80.91 6.83 80.91 10.98C80.91 15.13 78.54 19 73.35 19L65.29 19L65.29 3.04L73.35 3.04ZM69.51 15.66L72.39 15.66C75.3 15.66 76.5 14.05 76.5 10.98C76.5 7.86 75.28 6.37 72.39 6.37L69.51 6.37L69.51 15.66Z" fill="#FFEA2E" fill-opacity="1.000000" fill-rule="nonzero"/>
		<path id="Doskonałe Opcje Hotelowe" d="M89.11 19.38C84.02 19.38 82.25 16.24 82.25 13C82.25 9.78 84.02 6.61 89.11 6.61C94.2 6.61 96 9.78 96 13C96 16.21 94.2 19.38 89.11 19.38ZM86.38 13C86.38 15.4 87.14 16.16 89.11 16.16C91.08 16.16 91.85 15.4 91.85 13C91.85 10.6 91.08 9.83 89.11 9.83C87.14 9.83 86.38 10.6 86.38 13Z" fill="#FFEA2E" fill-opacity="1.000000" fill-rule="nonzero"/>
		<path id="Doskonałe Opcje Hotelowe" d="M97.22 15.13L100.96 15.13C101.06 16.12 101.87 16.91 103.41 16.91C104.75 16.91 105.28 16.48 105.28 15.78C105.28 15.18 105.07 14.68 103.67 14.51L101.13 14.22C98.8 13.96 97.55 12.71 97.55 10.62C97.55 7.76 100 6.61 103.22 6.61C106.53 6.61 108.83 7.74 109.07 10.55L105.33 10.55C105.21 9.61 104.56 9.06 103.24 9.06C101.85 9.06 101.32 9.56 101.32 10.24C101.32 10.74 101.61 11.2 102.74 11.32L105.21 11.56C108.04 11.84 109.22 13 109.22 15.3C109.22 17.58 107.8 19.38 103.34 19.38C98.95 19.38 97.31 17.34 97.22 15.13Z" fill="#FFEA2E" fill-opacity="1.000000" fill-rule="nonzero"/>
		<path id="Doskonałe Opcje Hotelowe" d="M124.89 19L120.02 19L116.9 14.7L115.19 16.36L115.19 19L111.06 19L111.06 2.2L115.19 2.2L115.19 12.4C115.6 11.8 116.06 11.22 116.46 10.72L119.78 7L124.65 7L124.65 7.09L119.51 12.13L124.89 19Z" fill="#FFEA2E" fill-opacity="1.000000" fill-rule="nonzero"/>
		<path id="Doskonałe Opcje Hotelowe" d="M131.44 19.38C126.35 19.38 124.58 16.24 124.58 13C124.58 9.78 126.35 6.61 131.44 6.61C136.53 6.61 138.33 9.78 138.33 13C138.33 16.21 136.53 19.38 131.44 19.38ZM128.7 13C128.7 15.4 129.47 16.16 131.44 16.16C133.41 16.16 134.18 15.4 134.18 13C134.18 10.6 133.41 9.83 131.44 9.83C129.47 9.83 128.7 10.6 128.7 13Z" fill="#FFEA2E" fill-opacity="1.000000" fill-rule="nonzero"/>
		<path id="Doskonałe Opcje Hotelowe" d="M148.5 6.61C151.65 6.61 153.02 8.56 153.02 11.7L153.02 19L148.89 19L148.89 12.4C148.89 10.81 148.24 9.95 146.8 9.95C145.14 9.95 144.18 11 144.18 13.36L144.18 19L140.06 19L140.06 7L144.18 7L144.18 9.2C144.98 7.64 146.37 6.61 148.5 6.61Z" fill="#FFEA2E" fill-opacity="1.000000" fill-rule="nonzero"/>
		<path id="Doskonałe Opcje Hotelowe" d="M158.91 19.31C156.51 19.31 154.93 17.94 154.93 15.83C154.93 13.91 155.72 12.64 159.03 12.08L161.75 11.6C162.85 11.41 163.14 11.12 163.14 10.5C163.14 9.78 162.71 9.35 161.34 9.35C159.9 9.35 159.2 9.92 159.18 10.98L155.17 10.98C155.29 8.44 157.5 6.61 161.29 6.61C165.08 6.61 166.95 8.17 166.95 10.91L166.95 15.68C166.95 16.95 167.03 18.01 167.17 19L163.62 19C163.5 18.3 163.43 17.48 163.43 16.5C162.83 18.25 161.34 19.31 158.91 19.31ZM160.47 16.62C162.03 16.62 163.14 15.52 163.14 13.36L163.14 12.9C162.56 13.33 162.01 13.48 161.27 13.67L160.57 13.84C159.42 14.12 158.99 14.53 158.99 15.35C158.99 16.19 159.63 16.62 160.47 16.62Z" fill="#FFEA2E" fill-opacity="1.000000" fill-rule="nonzero"/>
		<path id="Doskonałe Opcje Hotelowe" d="M175.62 8.1L178.5 7L178.5 10.14L175.62 11.24L175.62 19L171.49 19L171.49 12.85L168.61 13.96L168.61 10.81L171.49 9.71L171.49 2.2L175.62 2.2L175.62 8.1Z" fill="#FFEA2E" fill-opacity="1.000000" fill-rule="nonzero"/>
		<path id="Doskonałe Opcje Hotelowe" d="M186.4 16.62C187.62 16.62 188.37 16.09 188.7 15.37L192.71 15.37C192.3 17.44 190.67 19.38 186.3 19.38C181.41 19.38 179.68 16.26 179.68 12.97C179.68 9.49 181.69 6.61 186.3 6.61C191.2 6.61 192.76 9.71 192.76 13.04C192.76 13.43 192.73 13.79 192.69 14.05L183.69 14.05C183.93 15.97 184.86 16.62 186.4 16.62ZM186.35 9.32C184.86 9.32 184 9.92 183.73 11.65L188.85 11.65C188.7 10.14 187.96 9.32 186.35 9.32Z" fill="#FFEA2E" fill-opacity="1.000000" fill-rule="nonzero"/>
		<path id="Doskonałe Opcje Hotelowe" d="M73.52 43.38C67.24 43.38 64.96 39.3 64.96 35.03C64.96 30.83 67.24 26.63 73.52 26.63C79.86 26.63 82.11 30.85 82.11 35.03C82.11 39.28 79.86 43.38 73.52 43.38ZM69.37 35.03C69.37 38.15 70.24 39.95 73.52 39.95C76.86 39.95 77.7 38.15 77.7 35.03C77.7 31.86 76.86 30.08 73.52 30.08C70.24 30.08 69.37 31.86 69.37 35.03Z" fill="#962EFF" fill-opacity="1.000000" fill-rule="nonzero"/>
		<path id="Doskonałe Opcje Hotelowe" d="M92.23 30.61C96.16 30.61 97.72 33.56 97.72 37.02C97.72 40.36 96.16 43.38 92.23 43.38C90.19 43.38 88.82 42.61 88 41.32L88 47.8L83.87 47.8L83.87 31L88 31L88 32.63C88.82 31.36 90.19 30.61 92.23 30.61ZM90.83 40.16C92.87 40.16 93.59 39.23 93.59 37C93.59 34.76 92.87 33.83 90.83 33.83C88.72 33.83 88 34.86 88 37C88 39.13 88.72 40.16 90.83 40.16Z" fill="#962EFF" fill-opacity="1.000000" fill-rule="nonzero"/>
		<path id="Doskonałe Opcje Hotelowe" d="M99.12 37C99.12 33.76 100.95 30.61 105.92 30.61C110.26 30.61 112.37 33.06 112.47 36.06L108.41 36.06C108.29 34.64 107.57 33.83 105.96 33.83C104.24 33.83 103.25 34.6 103.25 37C103.25 39.4 104.19 40.16 105.89 40.16C107.6 40.16 108.32 39.23 108.46 37.91L112.52 37.91C112.42 40.76 110.43 43.38 105.96 43.38C101 43.38 99.12 40.24 99.12 37Z" fill="#962EFF" fill-opacity="1.000000" fill-rule="nonzero"/>
		<path id="Doskonałe Opcje Hotelowe" d="M114.37 27.04L118.64 27.04L118.64 29.53L114.37 29.53L114.37 27.04ZM113.7 47.8L110.84 47.8L110.84 44.53L114.44 44.53L114.44 31L118.57 31L118.57 43.09C118.57 46.16 117.35 47.8 113.7 47.8Z" fill="#962EFF" fill-opacity="1.000000" fill-rule="nonzero"/>
		<path id="Doskonałe Opcje Hotelowe" d="M127.15 40.62C128.37 40.62 129.12 40.09 129.45 39.37L133.46 39.37C133.05 41.44 131.42 43.38 127.05 43.38C122.16 43.38 120.43 40.26 120.43 36.97C120.43 33.49 122.44 30.61 127.05 30.61C131.95 30.61 133.51 33.71 133.51 37.04C133.51 37.43 133.48 37.79 133.44 38.05L124.44 38.05C124.68 39.97 125.61 40.62 127.15 40.62ZM127.1 33.32C125.61 33.32 124.75 33.92 124.48 35.65L129.6 35.65C129.45 34.14 128.71 33.32 127.1 33.32Z" fill="#962EFF" fill-opacity="1.000000" fill-rule="nonzero"/>
		<path id="Doskonałe Opcje Hotelowe" d="M152.62 33.25L152.62 27.04L156.84 27.04L156.84 43L152.62 43L152.62 36.54L145.95 36.54L145.95 43L141.72 43L141.72 27.04L145.95 27.04L145.95 33.25L152.62 33.25Z" fill="#962EFF" fill-opacity="1.000000" fill-rule="nonzero"/>
		<path id="Doskonałe Opcje Hotelowe" d="M165.59 43.38C160.5 43.38 158.72 40.24 158.72 37C158.72 33.78 160.5 30.61 165.59 30.61C170.68 30.61 172.48 33.78 172.48 37C172.48 40.21 170.68 43.38 165.59 43.38ZM162.85 37C162.85 39.4 163.62 40.16 165.59 40.16C167.56 40.16 168.32 39.4 168.32 37C168.32 34.6 167.56 33.83 165.59 33.83C163.62 33.83 162.85 34.6 162.85 37Z" fill="#962EFF" fill-opacity="1.000000" fill-rule="nonzero"/>
		<path id="Doskonałe Opcje Hotelowe" d="M182.29 43L180.11 43C176.44 43 175.28 41.36 175.28 38.27L175.28 34.09L173.17 34.09L173.17 32.17L175.62 31.09L177.32 28.09L179.41 28.09L179.41 31L182.68 31L182.68 34.09L179.41 34.09L179.41 39.73L182.29 39.73L182.29 43Z" fill="#962EFF" fill-opacity="1.000000" fill-rule="nonzero"/>
		<path id="Doskonałe Opcje Hotelowe" d="M190.27 40.62C191.49 40.62 192.23 40.09 192.57 39.37L196.58 39.37C196.17 41.44 194.54 43.38 190.17 43.38C185.27 43.38 183.55 40.26 183.55 36.97C183.55 33.49 185.56 30.61 190.17 30.61C195.07 30.61 196.63 33.71 196.63 37.04C196.63 37.43 196.6 37.79 196.55 38.05L187.55 38.05C187.79 39.97 188.73 40.62 190.27 40.62ZM190.22 33.32C188.73 33.32 187.87 33.92 187.6 35.65L192.71 35.65C192.57 34.14 191.83 33.32 190.22 33.32Z" fill="#962EFF" fill-opacity="1.000000" fill-rule="nonzero"/>
		<path id="Doskonałe Opcje Hotelowe" d="M202.4 43L198.27 43L198.27 26.2L202.4 26.2L202.4 43Z" fill="#962EFF" fill-opacity="1.000000" fill-rule="nonzero"/>
		<path id="Doskonałe Opcje Hotelowe" d="M211.08 43.38C205.99 43.38 204.22 40.24 204.22 37C204.22 33.78 205.99 30.61 211.08 30.61C216.17 30.61 217.97 33.78 217.97 37C217.97 40.21 216.17 43.38 211.08 43.38ZM208.35 37C208.35 39.4 209.11 40.16 211.08 40.16C213.05 40.16 213.82 39.4 213.82 37C213.82 34.6 213.05 33.83 211.08 33.83C209.11 33.83 208.35 34.6 208.35 37Z" fill="#962EFF" fill-opacity="1.000000" fill-rule="nonzero"/>
		<path id="Doskonałe Opcje Hotelowe" d="M234.32 39.88L236.24 31L240.08 31L237.13 43L231.41 43L229.3 35.1L227.17 43L221.43 43L218.5 31L222.65 31L224.65 39.85L227.31 31L231.65 31L234.32 39.88Z" fill="#962EFF" fill-opacity="1.000000" fill-rule="nonzero"/>
		<path id="Doskonałe Opcje Hotelowe" d="M247.29 40.62C248.51 40.62 249.26 40.09 249.59 39.37L253.6 39.37C253.19 41.44 251.56 43.38 247.19 43.38C242.3 43.38 240.57 40.26 240.57 36.97C240.57 33.49 242.58 30.61 247.19 30.61C252.09 30.61 253.65 33.71 253.65 37.04C253.65 37.43 253.62 37.79 253.58 38.05L244.58 38.05C244.82 39.97 245.75 40.62 247.29 40.62ZM247.24 33.32C245.75 33.32 244.89 33.92 244.62 35.65L249.74 35.65C249.59 34.14 248.85 33.32 247.24 33.32Z" fill="#962EFF" fill-opacity="1.000000" fill-rule="nonzero"/>
	</g>
</svg>
