<svg width="48.000000" height="48.000000" viewBox="0 0 48 48" fill="none" xmlns="http://www.w3.org/2000/svg" xmlns:xlink="http://www.w3.org/1999/xlink">
	<desc>
			Created with Pixso.
	</desc>
	<defs>
		<clipPath id="clip122_10">
			<rect id="residential 1" rx="0.000000" width="47.000000" height="47.000000" transform="translate(0.500000 0.500000)" fill="white" fill-opacity="0"/>
		</clipPath>
	</defs>
	<g clip-path="url(#clip122_10)">
		<path id="Vector" d="M32.33 1.03L21.63 5.6L21.63 43.49L24.89 43.49L24.89 35.53L24.14 35.6C23.83 35.63 23.55 35.4 23.52 35.09C23.5 34.79 23.72 34.51 24.03 34.48L29.82 33.93C30.13 33.9 30.41 34.13 30.44 34.44C30.46 34.75 30.24 35.02 29.93 35.05L29.07 35.13L29.07 43.49L43.02 43.49L43.02 5.6L32.33 1.03ZM25.83 30.42L23.81 30.62L23.81 26.71L25.83 26.4L25.83 30.42ZM25.83 24.08L23.81 24.46L23.81 20.54L25.83 20.04L25.83 24.08ZM25.83 17.73L23.81 18.3L23.81 14.38L25.83 13.7L25.83 17.73ZM25.83 11.38L23.81 12.13L23.81 8.47L25.83 7.6L25.83 11.38ZM30.15 30.01L27.88 30.23L27.88 26.08L30.15 25.73L30.15 30.01ZM30.15 23.26L27.88 23.69L27.88 19.54L30.15 18.98L30.15 23.26L30.15 23.26ZM30.15 16.51L27.88 17.15L27.88 13L30.15 12.23L30.15 16.51ZM30.15 9.77L27.88 10.61L27.87 6.73L30.15 5.75L30.15 9.77L30.15 9.77ZM35.56 36.84C35.56 37.15 35.31 37.4 35 37.4C34.69 37.4 34.44 37.15 34.44 36.84L34.44 5.94C34.44 5.63 34.69 5.38 35 5.38C35.31 5.38 35.56 5.63 35.56 5.94L35.56 36.84L35.56 36.84ZM38.24 36.84C38.24 37.15 37.99 37.4 37.67 37.4C37.36 37.4 37.11 37.15 37.11 36.84L37.11 7.08C37.11 6.77 37.36 6.52 37.67 6.52C37.99 6.52 38.24 6.77 38.24 7.08L38.24 36.84L38.24 36.84ZM40.91 36.84C40.91 37.15 40.66 37.4 40.35 37.4C40.04 37.4 39.79 37.15 39.79 36.84L39.79 8.23C39.79 7.91 40.04 7.66 40.35 7.66C40.66 7.66 40.91 7.91 40.91 8.23L40.91 36.84L40.91 36.84ZM16.1 12.07L4.97 16.83L4.97 43.49L8.45 43.49L8.45 37.31L7.69 37.38C7.38 37.41 7.11 37.18 7.08 36.88C7.05 36.57 7.28 36.29 7.59 36.26L13.38 35.71C13.69 35.68 13.96 35.91 13.99 36.22C14.02 36.53 13.8 36.8 13.49 36.83L12.63 36.91L12.63 43.49L20.51 43.49L20.51 13.95L16.1 12.07ZM8.99 31.55L7.35 31.78L7.35 28.61L8.99 28.28L8.99 31.55ZM8.99 26.39L7.35 26.8L7.35 23.63L8.99 23.11L8.99 26.39ZM8.99 21.23L7.35 21.81L7.35 18.85L8.99 18.16L8.99 21.23ZM12.57 31.06L10.68 31.32L10.68 27.93L12.57 27.54L12.57 31.06ZM12.57 25.51L10.68 25.98L10.68 22.58L12.57 21.98L12.57 25.51ZM12.57 19.96L10.68 20.63L10.68 17.45L12.57 16.65L12.57 19.96ZM1.08 44.62L46.91 44.62L46.91 46.96L1.08 46.96L1.08 44.62Z" fill="#FFEA2E" fill-opacity="1.000000" fill-rule="evenodd"/>
	</g>
</svg>
